# xmcd CD database file
#
# Track frame offsets:
#	150
#	16501
#	29802
#	44901
#	62476
#	73744
#	93660
#	106280
#	120508
#	140245
#	156113
#	179185
#	194080
#
# Disc length: 2817 seconds
#
# Revision: 0
# Processed by: cddbd v1.4PL0 Copyright (c) Steve Scherf et al.
# Submitted via: CDex 1.40Release
#
DISCID=c90aff0d
DTITLE=Melissa Sellers - Live At Stubbs Barbeque
DYEAR=2003
DGENRE=Country
TTITLE0=Turn Me Loose
TTITLE1=It Takes Two
TTITLE2=Live Forever
TTITLE3=Think Again
TTITLE4=You Ain't Woman Enough
TTITLE5=Rose Of San Antone
TTITLE6=Keep On Walking
TTITLE7=My Conscience
TTITLE8=Sugar Coated Love
TTITLE9=Bed You Made For Me
TTITLE10=Socks And Underwear
TTITLE11=White Freightliner
TTITLE12=Uncloudy Day/Will The Circle Be Unbroken
EXTD=YEAR: 2003 ID3G: 2
EXTT0=
EXTT1=
EXTT2=
EXTT3=
EXTT4=
EXTT5=
EXTT6=
EXTT7=
EXTT8=
EXTT9=
EXTT10=
EXTT11=
EXTT12=
PLAYORDER=
